<?xml version="1.0" encoding="UTF-8" standalone="no"?><!DOCTYPE svg PUBLIC "-//W3C//DTD SVG 1.1//EN" "http://www.w3.org/Graphics/SVG/1.1/DTD/svg11.dtd"><svg width="100%" height="100%" viewBox="0 0 1080 1080" version="1.1" xmlns="http://www.w3.org/2000/svg" xmlns:xlink="http://www.w3.org/1999/xlink" xml:space="preserve" xmlns:serif="http://www.serif.com/" style="fill-rule:evenodd;clip-rule:evenodd;stroke-linecap:round;stroke-linejoin:round;stroke-miterlimit:1.5;"><rect id="Artboard1" x="0" y="0" width="1080" height="1080" style="fill:none;"/><g id="Artboard11" serif:id="Artboard1"><g><rect x="274.716" y="274.716" width="530.569" height="530.569" style="fill:none;stroke:#000;stroke-width:22.45px;"/><path d="M538.198,629.63l132.642,-0l-0,175.654l-396.124,0l-0,-175.654l87.827,-0l-0,87.827l175.655,0l-0,-87.827Z" style="fill:none;stroke:#000;stroke-width:22.45px;"/><rect x="362.543" y="541.802" width="175.655" height="175.655" style="fill:none;stroke:#000;stroke-width:22.45px;"/><rect x="540" y="275.475" width="261.68" height="261.68" style="fill:none;stroke:#000;stroke-width:22.45px;"/><rect x="538.198" y="629.63" width="132.642" height="175.655" style="fill:none;stroke:#000;stroke-width:22.45px;"/><path d="M540,0c298.034,0 540,241.966 540,540c-0,298.034 -241.966,540 -540,540c-298.034,-0 -540,-241.966 -540,-540c0,-298.034 241.966,-540 540,-540Zm0,22.446c-285.646,-0 -517.554,231.908 -517.554,517.554c-0,285.646 231.908,517.554 517.554,517.554c285.646,0 517.554,-231.908 517.554,-517.554c0,-285.646 -231.908,-517.554 -517.554,-517.554Z"/></g></g></svg>