<?xml version="1.0" encoding="UTF-8" standalone="no"?><!DOCTYPE svg PUBLIC "-//W3C//DTD SVG 1.1//EN" "http://www.w3.org/Graphics/SVG/1.1/DTD/svg11.dtd"><svg width="100%" height="100%" viewBox="0 0 1080 1081" version="1.1" xmlns="http://www.w3.org/2000/svg" xmlns:xlink="http://www.w3.org/1999/xlink" xml:space="preserve" xmlns:serif="http://www.serif.com/" style="fill-rule:evenodd;clip-rule:evenodd;stroke-linecap:round;stroke-linejoin:round;stroke-miterlimit:1.5;"><rect id="Artboard6" x="0" y="0.486" width="1080" height="1080" style="fill:none;"/><g><g><g><g><path d="M623.668,540.486l-0,217.888l-313.968,-0l-0,-217.888" style="fill:none;stroke:#000;stroke-width:22.45px;"/><path d="M623.668,649.43l-313.968,-0" style="fill:none;stroke:#000;stroke-width:22.45px;"/><path d="M623.668,540.486l-313.968,-0" style="fill:none;stroke:#000;stroke-width:22.45px;"/><path d="M309.7,540.486l-0,-171.242c-0,-25.762 20.884,-46.646 46.646,-46.646l99.986,-0l0,217.888" style="fill:none;stroke:#000;stroke-width:22.45px;stroke-linecap:butt;"/><path d="M623.668,540.486l-0,-171.242c-0,-25.762 20.884,-46.646 46.646,-46.646l99.986,-0l0,217.888" style="fill:none;stroke:#000;stroke-width:22.45px;stroke-linecap:butt;"/></g></g></g><path d="M540,0.486c298.034,-0 540,241.966 540,540c-0,298.034 -241.966,540 -540,540c-298.034,-0 -540,-241.966 -540,-540c0,-298.034 241.966,-540 540,-540Zm0,22.446c-285.646,-0 -517.554,231.908 -517.554,517.554c-0,285.646 231.908,517.554 517.554,517.554c285.646,-0 517.554,-231.908 517.554,-517.554c0,-285.646 -231.908,-517.554 -517.554,-517.554Z"/></g></svg>