<?xml version="1.0" encoding="UTF-8" standalone="no"?><!DOCTYPE svg PUBLIC "-//W3C//DTD SVG 1.1//EN" "http://www.w3.org/Graphics/SVG/1.1/DTD/svg11.dtd"><svg width="100%" height="100%" viewBox="0 0 1080 1081" version="1.1" xmlns="http://www.w3.org/2000/svg" xmlns:xlink="http://www.w3.org/1999/xlink" xml:space="preserve" xmlns:serif="http://www.serif.com/" style="fill-rule:evenodd;clip-rule:evenodd;stroke-linecap:round;stroke-linejoin:round;stroke-miterlimit:1.5;"><rect id="Artboard4" x="0" y="0.486" width="1080" height="1080" style="fill:none;"/><g><g><path d="M295.973,918.616l0,-468.749c0,-47.335 18.804,-92.731 52.275,-126.202c33.47,-33.471 78.866,-52.274 126.201,-52.274c94.367,-0 190.898,-0 190.898,-0" style="fill:none;stroke:#000;stroke-width:22.45px;"/><path d="M665.347,271.391l-0,101.739" style="fill:none;stroke:#000;stroke-width:22.45px;"/><path d="M784.027,491.81l-118.68,-0l-118.68,-0c0,-65.545 53.135,-118.68 118.68,-118.68c65.545,-0 118.68,53.135 118.68,118.68Z" style="fill:none;stroke:#000;stroke-width:22.45px;"/><path d="M578.748,540.985l-0,54.816" style="fill:none;stroke:#000;stroke-width:22.45px;"/><path d="M665.347,540.985l-0,54.816" style="fill:none;stroke:#000;stroke-width:22.45px;"/><path d="M751.946,540.985l0,54.816" style="fill:none;stroke:#000;stroke-width:22.45px;"/></g><path d="M540,0.486c298.034,-0 540,241.966 540,540c-0,298.034 -241.966,540 -540,540c-298.034,-0 -540,-241.966 -540,-540c0,-298.034 241.966,-540 540,-540Zm-0,22.446c-285.646,-0 -517.554,231.908 -517.554,517.554c-0,285.646 231.908,517.554 517.554,517.554c285.646,-0 517.554,-231.908 517.554,-517.554c0,-285.646 -231.908,-517.554 -517.554,-517.554Z"/></g></svg>