<?xml version="1.0" encoding="UTF-8" standalone="no"?><!DOCTYPE svg PUBLIC "-//W3C//DTD SVG 1.1//EN" "http://www.w3.org/Graphics/SVG/1.1/DTD/svg11.dtd"><svg width="100%" height="100%" viewBox="0 0 1080 1080" version="1.1" xmlns="http://www.w3.org/2000/svg" xmlns:xlink="http://www.w3.org/1999/xlink" xml:space="preserve" xmlns:serif="http://www.serif.com/" style="fill-rule:evenodd;clip-rule:evenodd;stroke-linecap:round;stroke-linejoin:round;stroke-miterlimit:1.5;"><rect id="Artboard2" x="0" y="0" width="1080" height="1080" style="fill:none;"/><g id="Artboard21" serif:id="Artboard2"><path d="M348.651,514.789l-0,-100.534l124.582,-131.042l258.116,131.042l0,100.534l-258.116,-131.042l-124.582,131.042Z" style="fill:none;stroke:#000;stroke-width:22.45px;"/><path d="M348.651,626.269l-0,-111.48l124.582,-131.042l258.116,131.042l0,184.651l-319.029,0l-0,-73.171l-63.669,-0Z" style="fill:none;stroke:#000;stroke-width:22.45px;"/><rect x="284.981" y="626.269" width="127.339" height="127.339" style="fill:none;stroke:#000;stroke-width:22.45px;"/><path d="M540,0c298.034,0 540,241.966 540,540c0,298.034 -241.966,540 -540,540c-298.034,0 -540,-241.966 -540,-540c0,-298.034 241.966,-540 540,-540Zm0,22.446c-285.646,-0 -517.554,231.908 -517.554,517.554c-0,285.646 231.908,517.554 517.554,517.554c285.646,0 517.554,-231.908 517.554,-517.554c0,-285.646 -231.908,-517.554 -517.554,-517.554Z"/></g></svg>