<?xml version="1.0" encoding="UTF-8" standalone="no"?><!DOCTYPE svg PUBLIC "-//W3C//DTD SVG 1.1//EN" "http://www.w3.org/Graphics/SVG/1.1/DTD/svg11.dtd"><svg width="100%" height="100%" viewBox="0 0 1080 1081" version="1.1" xmlns="http://www.w3.org/2000/svg" xmlns:xlink="http://www.w3.org/1999/xlink" xml:space="preserve" xmlns:serif="http://www.serif.com/" style="fill-rule:evenodd;clip-rule:evenodd;stroke-linecap:round;stroke-linejoin:round;stroke-miterlimit:1.5;"><rect id="Artboard5" x="0" y="0.486" width="1080" height="1080" style="fill:none;"/><g><path d="M251.613,550.66l0,-84.087l201.382,-211.824l417.234,211.824l-0,298.48l-309.308,0l0,-214.393l-309.308,0Z" style="fill:none;stroke:#000;stroke-width:22.45px;"/><path d="M540,0.486c298.034,-0 540,241.966 540,540c0,298.034 -241.966,540 -540,540c-298.034,-0 -540,-241.966 -540,-540c0,-298.034 241.966,-540 540,-540Zm0,22.446c-285.646,-0 -517.554,231.908 -517.554,517.554c-0,285.646 231.908,517.554 517.554,517.554c285.646,-0 517.554,-231.908 517.554,-517.554c0,-285.646 -231.908,-517.554 -517.554,-517.554Z"/><g><path d="M498.378,667.274c8.24,0 14.92,6.68 14.92,14.92l-0,47.804l-230.48,0l-0,-47.804c-0,-8.24 6.679,-14.92 14.919,-14.92l200.641,0Z" style="fill:none;stroke:#000;stroke-width:22.45px;stroke-linecap:butt;"/><path d="M442.257,601.089c11.646,0 22.384,6.288 28.083,16.444c10.998,19.602 27.91,49.741 27.91,49.741l-200.385,0c0,0 16.912,-30.139 27.911,-49.741c5.698,-10.156 16.436,-16.444 28.082,-16.444c23.822,0 64.577,0 88.399,0Z" style="fill:none;stroke:#000;stroke-width:22.45px;stroke-linecap:butt;"/><path d="M332.89,729.998l0,13.887c0,5.614 -2.23,10.998 -6.2,14.968c-3.97,3.97 -9.354,6.2 -14.968,6.2c-0.001,0 -0.001,0 -0.002,0c-5.614,0 -10.998,-2.23 -14.968,-6.2c-3.97,-3.97 -6.2,-9.354 -6.2,-14.968c-0,-7.396 -0,-13.887 -0,-13.887l42.338,0Z" style="fill:none;stroke:#000;stroke-width:22.45px;stroke-linecap:butt;"/><path d="M505.564,729.998l-0,13.887c-0,5.614 -2.231,10.998 -6.2,14.968c-3.97,3.97 -9.354,6.2 -14.968,6.2c-0.001,0 -0.002,0 -0.003,0c-5.614,0 -10.998,-2.23 -14.968,-6.2c-3.969,-3.97 -6.2,-9.354 -6.2,-14.968c0,-7.396 0,-13.887 0,-13.887l42.339,0Z" style="fill:none;stroke:#000;stroke-width:22.45px;stroke-linecap:butt;"/></g></g></svg>