<?xml version="1.0" encoding="UTF-8" standalone="no"?><!DOCTYPE svg PUBLIC "-//W3C//DTD SVG 1.1//EN" "http://www.w3.org/Graphics/SVG/1.1/DTD/svg11.dtd"><svg width="100%" height="100%" viewBox="0 0 1080 1080" version="1.1" xmlns="http://www.w3.org/2000/svg" xmlns:xlink="http://www.w3.org/1999/xlink" xml:space="preserve" xmlns:serif="http://www.serif.com/" style="fill-rule:evenodd;clip-rule:evenodd;stroke-linecap:round;stroke-linejoin:round;stroke-miterlimit:1.5;"><rect id="Artboard3" x="0" y="0" width="1080" height="1080" style="fill:none;"/><clipPath id="_clip1"><rect id="Artboard31" serif:id="Artboard3" x="0" y="0" width="1080" height="1080"/></clipPath><g clip-path="url(#_clip1)"><g><g><rect x="198.213" y="342.876" width="0" height="349.92" style="stroke:#000;stroke-width:22.45px;"/><rect x="881.787" y="640.592" width="0" height="52.203" style="stroke:#000;stroke-width:22.45px;"/><path d="M881.787,564.478l0,76.114l-683.574,0l-0,-144.619c-0,-28.598 23.183,-51.782 51.782,-51.782l213.134,0l0,104.702c0,8.607 6.978,15.585 15.585,15.585l403.073,-0Z" style="fill:none;stroke:#000;stroke-width:22.45px;"/><path d="M863.26,421.24c4.914,0 9.626,1.952 13.101,5.427c3.474,3.474 5.426,8.187 5.426,13.101c0,38.731 0,124.71 0,124.71l-404.876,-0c-3.655,-0 -7.161,-1.452 -9.745,-4.037c-2.585,-2.584 -4.037,-6.09 -4.037,-9.745c0,-25.885 0,-81.783 0,-110.928c0,-4.914 1.952,-9.627 5.427,-13.101c3.474,-3.475 8.187,-5.427 13.1,-5.427l381.604,0Z" style="fill:none;stroke:#000;stroke-width:22.45px;"/></g><path d="M540,0c298.034,0 540,241.966 540,540c-0,298.034 -241.966,540 -540,540c-298.034,0 -540,-241.966 -540,-540c-0,-298.034 241.966,-540 540,-540Zm-0,22.446c-285.646,-0 -517.554,231.908 -517.554,517.554c-0,285.646 231.908,517.554 517.554,517.554c285.646,0 517.554,-231.908 517.554,-517.554c0,-285.646 -231.908,-517.554 -517.554,-517.554Z"/></g></g></svg>